<svg width="21" height="22" viewBox="0 0 21 22" fill="none" xmlns="http://www.w3.org/2000/svg">
<path d="M3.04688 3.6875C5.10938 1.5625 7.59375 0.5 10.5 0.5C13.4062 0.5 15.875 1.5625 17.9062 3.6875C19.9688 5.78125 21 8.3125 21 11.2812C21 13.625 20.3281 15.7344 18.9844 17.6094C17.6406 19.4844 15.9219 20.7812 13.8281 21.5H13.6406C13.2656 21.5 13.0781 21.3125 13.0781 20.9375C13.0781 20.9062 13.0781 20.5625 13.0781 19.9062C13.1094 19.2188 13.125 18.5938 13.125 18.0312C13.125 17.125 12.875 16.4531 12.375 16.0156C13.8125 15.8281 14.9688 15.375 15.8438 14.6562C16.75 13.9062 17.2031 12.5938 17.2031 10.7188C17.2031 9.59375 16.8438 8.625 16.125 7.8125C16.4375 6.90625 16.4062 5.95312 16.0312 4.95312H15.7969C15.0781 4.95312 14.1875 5.32812 13.125 6.07812C12.2188 5.82812 11.3438 5.70312 10.5 5.70312C9.65625 5.70312 8.78125 5.82812 7.875 6.07812C6.8125 5.32812 5.92188 4.95312 5.20312 4.95312H4.96875C4.59375 5.95312 4.5625 6.90625 4.875 7.8125C4.15625 8.625 3.79688 9.59375 3.79688 10.7188C3.79688 12.5938 4.23438 13.9062 5.10938 14.6562C5.98438 15.375 7.14062 15.8281 8.57812 16.0156C8.23438 16.3594 8.01562 16.8438 7.92188 17.4688C7.54688 17.6562 7.14062 17.75 6.70312 17.75C5.92188 17.75 5.3125 17.3594 4.875 16.5781C4.46875 15.8906 3.92188 15.5156 3.23438 15.4531C2.57812 15.4531 2.5625 15.6719 3.1875 16.1094C3.65625 16.3594 4.04688 16.8906 4.35938 17.7031C4.39062 17.8281 4.45312 17.9844 4.54688 18.1719C4.64062 18.3281 4.89062 18.5469 5.29688 18.8281C5.73438 19.1094 6.25 19.25 6.84375 19.25C7.28125 19.25 7.625 19.2188 7.875 19.1562V20.9844C7.875 21.3281 7.70312 21.5 7.35938 21.5H7.17188C5.04688 20.7812 3.3125 19.5 1.96875 17.6562C0.65625 15.7812 0 13.6562 0 11.2812C0 8.3125 1.01562 5.78125 3.04688 3.6875Z" fill="white"/>
</svg>
