<svg width="23" height="18" viewBox="0 0 23 18" fill="none" xmlns="http://www.w3.org/2000/svg">
<path d="M22.125 2.15625C21.5625 3.03125 20.8125 3.8125 19.875 4.5V5.0625C19.875 8.34375 18.6875 11.3281 16.3125 14.0156C13.9688 16.6719 10.8438 18 6.9375 18C4.4375 18 2.125 17.3125 0 15.9375C0.5 16 0.859375 16.0312 1.07812 16.0312C3.17188 16.0312 5.04688 15.375 6.70312 14.0625C5.73438 14.0312 4.85938 13.7344 4.07812 13.1719C3.29688 12.5781 2.76562 11.8281 2.48438 10.9219C2.85938 10.9844 3.14062 11.0156 3.32812 11.0156C3.64062 11.0156 4.04688 10.9531 4.54688 10.8281C3.51562 10.6094 2.64062 10.0938 1.92188 9.28125C1.23438 8.4375 0.890625 7.46875 0.890625 6.375V6.32812C1.57812 6.70312 2.26562 6.89062 2.95312 6.89062C1.60938 6.01562 0.9375 4.75 0.9375 3.09375C0.9375 2.3125 1.14062 1.5625 1.54688 0.84375C3.95312 3.8125 7.0625 5.39062 10.875 5.57812C10.8125 5.35938 10.7812 5.01562 10.7812 4.54688C10.7812 3.26562 11.2188 2.1875 12.0938 1.3125C12.9688 0.4375 14.0469 0 15.3281 0C16.6094 0 17.7031 0.484375 18.6094 1.45312C19.5469 1.29688 20.5156 0.921875 21.5156 0.328125C21.2031 1.42188 20.5312 2.26562 19.5 2.85938C20.4688 2.76562 21.3438 2.53125 22.125 2.15625Z" fill="white"/>
</svg>
