<svg width="23" height="19" viewBox="0 0 23 19" fill="none" xmlns="http://www.w3.org/2000/svg">
<path d="M22.125 2.65625C21.5625 3.53125 20.8125 4.3125 19.875 5V5.5625C19.875 8.84375 18.6875 11.8281 16.3125 14.5156C13.9688 17.1719 10.8438 18.5 6.9375 18.5C4.4375 18.5 2.125 17.8125 0 16.4375C0.5 16.5 0.859375 16.5312 1.07812 16.5312C3.17188 16.5312 5.04688 15.875 6.70312 14.5625C5.73438 14.5312 4.85938 14.2344 4.07812 13.6719C3.29688 13.0781 2.76562 12.3281 2.48438 11.4219C2.85938 11.4844 3.14062 11.5156 3.32812 11.5156C3.64062 11.5156 4.04688 11.4531 4.54688 11.3281C3.51562 11.1094 2.64062 10.5938 1.92188 9.78125C1.23438 8.9375 0.890625 7.96875 0.890625 6.875V6.82812C1.57812 7.20312 2.26562 7.39062 2.95312 7.39062C1.60938 6.51562 0.9375 5.25 0.9375 3.59375C0.9375 2.8125 1.14062 2.0625 1.54688 1.34375C3.95312 4.3125 7.0625 5.89062 10.875 6.07812C10.8125 5.85938 10.7812 5.51562 10.7812 5.04688C10.7812 3.76562 11.2188 2.6875 12.0938 1.8125C12.9688 0.9375 14.0469 0.5 15.3281 0.5C16.6094 0.5 17.7031 0.984375 18.6094 1.95312C19.5469 1.79688 20.5156 1.42188 21.5156 0.828125C21.2031 1.92188 20.5312 2.76562 19.5 3.35938C20.4688 3.26562 21.3438 3.03125 22.125 2.65625Z" fill="#121212"/>
</svg>
