<svg width="21" height="21" viewBox="0 0 21 21" fill="none" xmlns="http://www.w3.org/2000/svg">
<path d="M3.04688 3.1875C5.10938 1.0625 7.59375 0 10.5 0C13.4062 0 15.875 1.0625 17.9062 3.1875C19.9688 5.28125 21 7.8125 21 10.7812C21 13.125 20.3281 15.2344 18.9844 17.1094C17.6406 18.9844 15.9219 20.2812 13.8281 21H13.6406C13.2656 21 13.0781 20.8125 13.0781 20.4375C13.0781 20.4062 13.0781 20.0625 13.0781 19.4062C13.1094 18.7188 13.125 18.0938 13.125 17.5312C13.125 16.625 12.875 15.9531 12.375 15.5156C13.8125 15.3281 14.9688 14.875 15.8438 14.1562C16.75 13.4062 17.2031 12.0938 17.2031 10.2188C17.2031 9.09375 16.8438 8.125 16.125 7.3125C16.4375 6.40625 16.4062 5.45312 16.0312 4.45312H15.7969C15.0781 4.45312 14.1875 4.82812 13.125 5.57812C12.2188 5.32812 11.3438 5.20312 10.5 5.20312C9.65625 5.20312 8.78125 5.32812 7.875 5.57812C6.8125 4.82812 5.92188 4.45312 5.20312 4.45312H4.96875C4.59375 5.45312 4.5625 6.40625 4.875 7.3125C4.15625 8.125 3.79688 9.09375 3.79688 10.2188C3.79688 12.0938 4.23438 13.4062 5.10938 14.1562C5.98438 14.875 7.14062 15.3281 8.57812 15.5156C8.23438 15.8594 8.01562 16.3438 7.92188 16.9688C7.54688 17.1562 7.14062 17.25 6.70312 17.25C5.92188 17.25 5.3125 16.8594 4.875 16.0781C4.46875 15.3906 3.92188 15.0156 3.23438 14.9531C2.57812 14.9531 2.5625 15.1719 3.1875 15.6094C3.65625 15.8594 4.04688 16.3906 4.35938 17.2031C4.39062 17.3281 4.45312 17.4844 4.54688 17.6719C4.64062 17.8281 4.89062 18.0469 5.29688 18.3281C5.73438 18.6094 6.25 18.75 6.84375 18.75C7.28125 18.75 7.625 18.7188 7.875 18.6562V20.4844C7.875 20.8281 7.70312 21 7.35938 21H7.17188C5.04688 20.2812 3.3125 19 1.96875 17.1562C0.65625 15.2812 0 13.1562 0 10.7812C0 7.8125 1.01562 5.28125 3.04688 3.1875Z" fill="#121212"/>
</svg>
