<svg width="336" height="700" viewBox="0 0 336 700" fill="none" xmlns="http://www.w3.org/2000/svg">
<g clip-path="url(#clip0)">
<path d="M290.8 699.5H44.4C19.9 699.5 0 679.6 0 655.1V44.4C0 19.9 19.9 0 44.4 0H290.8C315.3 0 335.2 19.9 335.2 44.4V655C335.3 679.6 315.3 699.5 290.8 699.5ZM292.1 11.6H259.2C257.3 11.6 255.6 12.9 255.1 14.6V19C255.1 28.6 247.3 36.4 237.7 36.4H97.6C88 36.4 80.2 28.6 80.2 19V16C80.2 13.6 78.2 11.7 75.9 11.7H43.1C25.9 11.7 11.8 25.8 11.8 43V656.7C11.8 673.9 25.9 688 43.1 688H292.1C309.3 688 323.4 673.9 323.4 656.7V42.9C323.4 25.7 309.3 11.6 292.1 11.6Z" fill="white"/>
</g>
<defs>
<clipPath id="clip0">
<rect width="335.3" height="699.5" fill="white"/>
</clipPath>
</defs>
</svg>
