<svg width="142" height="16" viewBox="0 0 142 16" fill="none" xmlns="http://www.w3.org/2000/svg">
<g clip-path="url(#clip0)">
<path fill-rule="evenodd" clip-rule="evenodd" d="M43.3085 0.0587639L43.3785 0.110189L53.139 8.00452V0.356887H57.0478V15.8316C57.0478 15.993 56.9923 16.0637 56.7979 15.9291L56.7278 15.8764L46.9673 8.00452V15.6073H43.0585V0.155043C43.0585 0.0339372 43.1141 -0.0690031 43.3085 0.0587639ZM97.4328 0.571429V4.00277H91.0325V7.54625H96.6785V10.9776H91.0325V15.8218H86.8723V0.571429H97.4328ZM106.612 0.571429C110.795 0.571429 113.15 3.17297 113.15 6.55946C113.15 8.75731 112.167 10.5066 110.338 11.4934L113.104 15.8218H108.601L106.429 12.3232H104.875V15.8218H100.715V0.571429H106.612ZM127.22 0.571429V4.00277H120.477V7.54625H126.1V10.7982H120.477V12.3905H127.54V15.8218H116.317V0.571429H127.22ZM141.68 0.571429V4.00277H134.937V7.54625H140.56V10.7982H134.937V12.3905H142V15.8218H130.777V0.571429H141.68ZM23.2828 0.17747C27.763 0.17747 31.6261 3.38454 31.6261 7.98209C31.6261 12.5796 27.763 15.8091 23.2828 15.8091C18.8026 15.8091 14.9395 12.5796 14.9395 7.98209C14.9395 3.38454 18.8026 0.17747 23.2828 0.17747ZM5.89744 0.356887C10.0805 0.356887 12.4349 2.95843 12.4349 6.34492C12.4349 9.7314 10.0805 12.3105 5.89744 12.3105H4.16021V15.6073H0V0.356887H5.89744ZM39.0453 0.356887V15.6073H34.885V0.356887H39.0453ZM72.5359 0.356887V3.78823H68.4214V15.6073H64.2612V3.78823H60.1467V0.356887H72.5359ZM78.2316 5.89938L81.4861 9.15384L78.2536 12.3863L74.9991 9.13187L78.2316 5.89938ZM23.2828 3.72095C20.677 3.72095 19.1912 5.5824 19.1912 7.98209C19.1912 10.3818 20.677 12.2657 23.2828 12.2657C25.8887 12.2657 27.3745 10.3818 27.3745 7.98209C27.3745 5.5824 25.8887 3.72095 23.2828 3.72095ZM106.406 4.0252H104.875V9.07129H106.406C108.281 9.07129 108.966 8.03964 108.966 6.55946C108.966 5.07927 108.281 4.0252 106.406 4.0252ZM5.69172 3.81066H4.16021V8.85675H5.69172C7.5661 8.85675 8.25185 7.8251 8.25185 6.34492C8.25185 4.86473 7.5661 3.81066 5.69172 3.81066Z" fill="white"/>
</g>
<defs>
<clipPath id="clip0">
<rect width="142" height="16" fill="white"/>
</clipPath>
</defs>
</svg>
